<svg xmlns="http://www.w3.org/2000/svg" width="375" viewBox="0 0 375 375" height="375" version="1.0"><defs><clipPath id="a"><path d="M 165 54.484375 L 221 54.484375 L 221 74 L 165 74 Z M 165 54.484375"/></clipPath><clipPath id="b"><path d="M 165 98 L 305 98 L 305 320.734375 L 165 320.734375 Z M 165 98"/></clipPath><clipPath id="c"><path d="M 57.144531 187 L 120 187 L 120 195 L 57.144531 195 Z M 57.144531 187"/></clipPath></defs><path fill="#FFF" d="M 187.5 0 C 83.945312 0 0 83.945312 0 187.5 C 0 291.054688 83.945312 375 187.5 375 C 291.054688 375 375 291.054688 375 187.5 C 375 83.945312 291.054688 0 187.5 0"/><path fill="#161A1D" d="M 193.421875 300.882812 C 182.511719 300.882812 171.84375 298.984375 161.707031 295.234375 C 159.929688 294.578125 159.019531 292.601562 159.675781 290.820312 C 160.335938 289.042969 162.3125 288.136719 164.089844 288.789062 C 173.460938 292.257812 183.332031 294.015625 193.421875 294.015625 C 240.039062 294.015625 277.96875 256.101562 277.96875 209.496094 C 277.96875 162.890625 240.039062 124.976562 193.421875 124.976562 C 179.875 124.976562 166.933594 128.082031 154.960938 134.210938 C 153.273438 135.074219 151.203125 134.40625 150.339844 132.71875 C 149.472656 131.027344 150.140625 128.960938 151.832031 128.09375 C 164.78125 121.46875 178.777344 118.105469 193.421875 118.105469 C 243.832031 118.105469 284.839844 159.105469 284.839844 209.496094 C 284.839844 259.886719 243.828125 300.882812 193.421875 300.882812 Z M 193.421875 300.882812"/><path fill="#161A1D" d="M 192.601562 149.839844 C 190.703125 149.839844 189.164062 148.300781 189.164062 146.40625 L 189.164062 121.867188 C 189.164062 119.96875 190.703125 118.433594 192.601562 118.433594 C 194.5 118.433594 196.039062 119.96875 196.039062 121.867188 L 196.039062 146.40625 C 196.039062 148.300781 194.5 149.839844 192.601562 149.839844 Z M 192.601562 149.839844"/><path fill="#161A1D" d="M 192.601562 300.882812 C 190.703125 300.882812 189.164062 299.347656 189.164062 297.449219 L 189.164062 272.914062 C 189.164062 271.015625 190.703125 269.476562 192.601562 269.476562 C 194.5 269.476562 196.039062 271.015625 196.039062 272.914062 L 196.039062 297.449219 C 196.039062 299.347656 194.5 300.882812 192.601562 300.882812 Z M 192.601562 300.882812"/><path fill="#161A1D" d="M 253.484375 275.058594 C 252.585938 275.058594 251.691406 274.710938 251.015625 274.015625 L 233.929688 256.402344 C 232.609375 255.039062 232.640625 252.867188 234.003906 251.546875 C 235.367188 250.226562 237.542969 250.257812 238.863281 251.621094 L 255.949219 269.234375 C 257.269531 270.59375 257.238281 272.769531 255.875 274.089844 C 255.207031 274.738281 254.34375 275.058594 253.484375 275.058594 Z M 253.484375 275.058594"/><path fill="#161A1D" d="M 239.707031 170.277344 C 238.8125 170.277344 237.914062 169.929688 237.242188 169.234375 C 235.921875 167.875 235.953125 165.699219 237.316406 164.378906 L 254.933594 147.296875 C 256.296875 145.976562 258.472656 146.007812 259.792969 147.371094 C 261.113281 148.734375 261.082031 150.910156 259.71875 152.230469 L 242.101562 169.308594 C 241.433594 169.957031 240.570312 170.277344 239.707031 170.277344 Z M 239.707031 170.277344"/><path fill="#161A1D" d="M 280.101562 213.253906 L 253.542969 213.253906 C 251.644531 213.253906 250.105469 211.71875 250.105469 209.820312 C 250.105469 207.921875 251.644531 206.386719 253.542969 206.386719 L 280.101562 206.386719 C 282 206.386719 283.539062 207.921875 283.539062 209.820312 C 283.539062 211.71875 282 213.253906 280.101562 213.253906 Z M 280.101562 213.253906"/><path fill="#161A1D" d="M 187.402344 69.574219 L 199.445312 69.574219 L 199.445312 102.136719 L 187.402344 102.136719 Z M 187.402344 69.574219"/><path fill="#161A1D" d="M 199.445312 105.574219 L 187.398438 105.574219 C 185.503906 105.574219 183.964844 104.035156 183.964844 102.136719 L 183.964844 69.574219 C 183.964844 67.675781 185.503906 66.140625 187.398438 66.140625 L 199.445312 66.140625 C 201.34375 66.140625 202.882812 67.675781 202.882812 69.574219 L 202.882812 102.136719 C 202.882812 104.035156 201.34375 105.574219 199.445312 105.574219 Z M 190.835938 98.703125 L 196.011719 98.703125 L 196.011719 73.011719 L 190.835938 73.011719 Z M 190.835938 98.703125"/><path fill="#161A1D" d="M 217.457031 63.738281 C 217.457031 66.960938 212.828125 69.574219 207.117188 69.574219 L 179.726562 69.574219 C 174.015625 69.574219 169.394531 66.960938 169.394531 63.738281 C 169.394531 60.511719 174.015625 57.902344 179.726562 57.902344 L 207.117188 57.902344 C 212.828125 57.902344 217.457031 60.511719 217.457031 63.738281 Z M 217.457031 63.738281"/><g clip-path="url(#a)"><path fill="#161A1D" d="M 207.117188 73.011719 L 179.726562 73.011719 C 171.875 73.011719 165.957031 69.023438 165.957031 63.738281 C 165.957031 58.449219 171.875 54.464844 179.726562 54.464844 L 207.117188 54.464844 C 214.96875 54.464844 220.890625 58.449219 220.890625 63.738281 C 220.890625 69.023438 214.96875 73.011719 207.117188 73.011719 Z M 179.726562 61.335938 C 175.304688 61.335938 172.9375 63.1875 172.828125 63.746094 C 172.9375 64.289062 175.296875 66.140625 179.726562 66.140625 L 207.117188 66.140625 C 211.546875 66.140625 213.910156 64.289062 214.019531 63.726562 C 213.910156 63.1875 211.542969 61.335938 207.117188 61.335938 Z M 179.726562 61.335938"/></g><path fill="#161A1D" d="M 286.464844 103.820312 L 295.109375 112.214844 L 272.414062 135.570312 L 263.769531 127.175781 Z M 286.464844 103.820312"/><path fill="#161A1D" d="M 272.421875 138.992188 C 271.558594 138.992188 270.695312 138.667969 270.027344 138.019531 L 261.382812 129.625 C 260.730469 128.992188 260.355469 128.125 260.34375 127.210938 C 260.328125 126.300781 260.679688 125.421875 261.316406 124.769531 L 284.011719 101.414062 C 285.335938 100.054688 287.507812 100.023438 288.871094 101.34375 L 297.511719 109.734375 C 298.167969 110.371094 298.539062 111.238281 298.554688 112.148438 C 298.566406 113.058594 298.21875 113.9375 297.582031 114.589844 L 274.886719 137.949219 C 274.214844 138.640625 273.316406 138.992188 272.421875 138.992188 Z M 268.636719 127.089844 L 272.351562 130.699219 L 290.257812 112.269531 L 286.546875 108.664062 Z M 268.636719 127.089844"/><path fill="#161A1D" d="M 312.105469 120.558594 C 309.859375 122.871094 304.71875 121.523438 300.621094 117.542969 L 280.976562 98.464844 C 276.878906 94.484375 275.378906 89.386719 277.628906 87.078125 C 279.875 84.765625 285.011719 86.113281 289.113281 90.089844 L 308.757812 109.167969 C 312.855469 113.148438 314.351562 118.246094 312.105469 120.558594 Z M 312.105469 120.558594"/><path fill="#161A1D" d="M 309.0625 125.121094 C 305.574219 125.121094 301.527344 123.210938 298.226562 120.007812 L 278.578125 100.925781 C 276.179688 98.59375 274.417969 95.820312 273.625 93.109375 C 272.640625 89.769531 273.203125 86.695312 275.164062 84.679688 C 276.542969 83.261719 278.449219 82.511719 280.667969 82.511719 C 284.152344 82.511719 288.203125 84.421875 291.503906 87.625 L 311.148438 106.703125 C 316.78125 112.171875 318.253906 119.15625 314.570312 122.949219 C 313.1875 124.371094 311.285156 125.121094 309.0625 125.121094 Z M 280.667969 89.378906 C 280.304688 89.378906 280.121094 89.453125 280.082031 89.476562 C 279.785156 89.941406 280.195312 92.914062 283.367188 96 L 303.015625 115.078125 C 305.273438 117.269531 307.679688 118.253906 309.0625 118.253906 C 309.429688 118.253906 309.613281 118.183594 309.648438 118.15625 C 309.945312 117.695312 309.535156 114.71875 306.359375 111.632812 L 286.714844 92.554688 C 284.457031 90.363281 282.050781 89.378906 280.667969 89.378906 Z M 280.667969 89.378906"/><g clip-path="url(#b)"><path fill="#A4161A" d="M 193.421875 320.613281 C 185.054688 320.613281 176.714844 319.675781 168.628906 317.832031 C 166.777344 317.410156 165.621094 315.570312 166.042969 313.71875 C 166.464844 311.871094 168.300781 310.703125 170.15625 311.136719 C 177.742188 312.867188 185.566406 313.742188 193.421875 313.742188 C 250.832031 313.742188 297.539062 267.050781 297.539062 209.65625 C 297.539062 152.265625 250.832031 105.574219 193.421875 105.574219 C 185.570312 105.574219 177.742188 106.449219 170.152344 108.179688 C 168.304688 108.605469 166.460938 107.445312 166.039062 105.597656 C 165.617188 103.746094 166.777344 101.902344 168.628906 101.480469 C 176.714844 99.636719 185.054688 98.703125 193.421875 98.703125 C 254.621094 98.703125 304.410156 148.476562 304.410156 209.65625 C 304.410156 270.839844 254.621094 320.613281 193.421875 320.613281 Z M 193.421875 320.613281"/></g><path fill="#A4161A" d="M 193.421875 213.09375 C 192.792969 213.09375 192.167969 212.921875 191.617188 212.578125 C 190.601562 211.953125 189.984375 210.847656 189.984375 209.65625 L 189.984375 161.167969 C 189.984375 159.269531 191.523438 157.730469 193.421875 157.730469 C 195.320312 157.730469 196.859375 159.269531 196.859375 161.167969 L 196.859375 204.097656 L 222.253906 191.40625 C 223.953125 190.558594 226.015625 191.246094 226.863281 192.941406 C 227.714844 194.640625 227.023438 196.703125 225.328125 197.550781 L 194.957031 212.730469 C 194.472656 212.972656 193.945312 213.09375 193.421875 213.09375 Z M 193.421875 213.09375"/><path fill="#161A1D" d="M 139.773438 143 L 109.066406 143 C 107.167969 143 105.632812 141.464844 105.632812 139.566406 C 105.632812 137.667969 107.167969 136.128906 109.066406 136.128906 L 139.773438 136.128906 C 141.671875 136.128906 143.210938 137.667969 143.210938 139.566406 C 143.210938 141.464844 141.671875 143 139.773438 143 Z M 139.773438 143"/><path fill="#161A1D" d="M 147.582031 301.207031 L 116.875 301.207031 C 114.980469 301.207031 113.441406 299.671875 113.441406 297.773438 C 113.441406 295.875 114.980469 294.339844 116.875 294.339844 L 147.582031 294.339844 C 149.480469 294.339844 151.019531 295.875 151.019531 297.773438 C 151.019531 299.671875 149.480469 301.207031 147.582031 301.207031 Z M 147.582031 301.207031"/><path fill="#161A1D" d="M 114.21875 222.832031 L 62.292969 222.832031 C 60.398438 222.832031 58.859375 221.296875 58.859375 219.398438 C 58.859375 217.5 60.398438 215.960938 62.292969 215.960938 L 114.21875 215.960938 C 116.117188 215.960938 117.652344 217.5 117.652344 219.398438 C 117.652344 221.296875 116.113281 222.832031 114.21875 222.832031 Z M 114.21875 222.832031"/><path fill="#161A1D" d="M 118.054688 250.785156 L 66.132812 250.785156 C 64.234375 250.785156 62.695312 249.246094 62.695312 247.351562 C 62.695312 245.453125 64.234375 243.914062 66.132812 243.914062 L 118.054688 243.914062 C 119.953125 243.914062 121.488281 245.453125 121.488281 247.351562 C 121.488281 249.246094 119.949219 250.785156 118.054688 250.785156 Z M 118.054688 250.785156"/><path fill="#161A1D" d="M 133.40625 278.433594 L 81.484375 278.433594 C 79.585938 278.433594 78.046875 276.898438 78.046875 275 C 78.046875 273.101562 79.585938 271.566406 81.484375 271.566406 L 133.40625 271.566406 C 135.304688 271.566406 136.839844 273.101562 136.839844 275 C 136.839844 276.898438 135.304688 278.433594 133.40625 278.433594 Z M 133.40625 278.433594"/><path fill="#161A1D" d="M 124.421875 166.96875 L 75.546875 166.96875 C 73.648438 166.96875 72.113281 165.429688 72.113281 163.53125 C 72.113281 161.636719 73.648438 160.097656 75.546875 160.097656 L 124.421875 160.097656 C 126.320312 160.097656 127.855469 161.636719 127.855469 163.53125 C 127.855469 165.429688 126.320312 166.96875 124.421875 166.96875 Z M 124.421875 166.96875"/><g clip-path="url(#c)"><path fill="#161A1D" d="M 115.882812 194.121094 L 60.625 194.121094 C 58.726562 194.121094 57.191406 192.582031 57.191406 190.6875 C 57.191406 188.789062 58.726562 187.25 60.625 187.25 L 115.882812 187.25 C 117.78125 187.25 119.320312 188.789062 119.320312 190.6875 C 119.320312 192.582031 117.78125 194.121094 115.882812 194.121094 Z M 115.882812 194.121094"/></g></svg>